<?xml version="1.0" standalone="no"?>
<!DOCTYPE svg PUBLIC "-//W3C//DTD SVG 1.1//EN" "http://www.w3.org/Graphics/SVG/1.1/DTD/svg11.dtd" >
<svg xmlns="http://www.w3.org/2000/svg" xmlns:xlink="http://www.w3.org/1999/xlink" version="1.1" viewBox="-10 0 266 256">
   <path fill="currentColor"
d="M110 42q9 2 15 6q2 2 2 3q-1 2 -3 1q-11 -3 -23 1q-20 4 -32 14q-6 3 -2 -2l4 -4q-8 1 -14 2q-7 5 -23 -2q-4 -1 1 -2q10 1 18 0q9 -1 27 -5q13 -3 19 -10q2 -5 11 -2zM72 87q-2 -4 2 -2t10 6q4 1 1 5q-3 5 -4 16t-1 41q-1 2 -2 3q-2 0 -2 -2q-6 -12 -2 -16q1 -2 2 -12
q0 -29 -4 -39zM100 103q1 -3 5 -2l10 2q1 3 0 4q-7 0 -11 2q-5 4 -14 6q-4 1 -1 -1q12 -6 11 -11zM38 133q0 -3 2 0q5 7 5 10v28q36 -12 65 -18l2 -1q1 -1 6 -3q5 0 7 1q3 3 6 3q4 3 2 5q-3 2 -8 -1q-8 -3 -18 -1q-43 10 -73 23q-6 3 -7 5q-3 3 -7 1q-1 -4 1 -6q1 -2 4 -1
q1 1 3 -1q3 0 10 -4q5 -3 1 -23q-1 -2 -1 -5q-1 -6 0 -12zM165 13q-3 -4 2 -1q3 3 3 12q-10 45 -28 65q-5 4 -2 -1q15 -20 24 -58q2 -11 1 -17zM204 56q3 -5 7 -3q5 0 11 3q3 1 2 3q0 1 -3 1q-33 11 -45 23q-5 4 -2 -1q1 -2 -2 -1q-7 4 -15 5q-5 1 -1 -1q17 -6 33 -17
q14 -9 15 -12zM172 98q2 -3 13 1q3 2 0 4q-3 3 -5 8q-2 3 -3 6q-10 24 -17 36q14 23 30 42q2 3 5 4t11 1q17 1 36 6q6 2 0 2q-13 -3 -31 -4h-6q-14 0 -16 -5q-10 -11 -31 -43q-23 32 -42 47q-4 1 -1 -1q22 -21 42 -50q-12 -21 -16 -27q-5 -5 -11 -4q-3 0 0 -2q10 -7 14 1
q6 13 14 29q9 -16 15 -40q1 -6 -1 -8h-2q0 -1 2 -3z" />
</svg>
