<?xml version="1.0" standalone="no"?>
<!DOCTYPE svg PUBLIC "-//W3C//DTD SVG 1.1//EN" "http://www.w3.org/Graphics/SVG/1.1/DTD/svg11.dtd" >
<svg xmlns="http://www.w3.org/2000/svg" xmlns:xlink="http://www.w3.org/1999/xlink" version="1.1" viewBox="-10 0 266 256">
   <path fill="currentColor"
d="M204 22q7 9 12 11q2 3 1 5q0 1 -4 2q-8 2 -12 12q-10 25 -20 36q34 13 50 38q3 7 -2 7h-3q-14 -5 -23 -6q-17 -3 -37 -12q-1 7 -1 20q-2 57 1 83q8 8 13 17q-1 4 -5 4q-2 -1 -1 -1q-7 -3 -8 -7q-5 -7 -10 -10q-3 -8 7 -16q0 -30 -1 -45v-33q0 -32 -1 -75q0 -12 -5 -14
q-2 -1 -2 -2q1 0 3 -1q5 2 10 3q4 2 2 5q-3 6 -2 13v56q17 9 42 8q8 1 9 -2q1 -2 -5 -7q-12 -10 -35 -20q-3 0 -1 -4l1 -1q12 -11 23 -50q1 -4 -4 -5q-17 5 -28 5q-6 0 0 -2q15 -4 25 -9q5 -7 11 -3zM149 110q3 -1 4 1q0 1 -3 3q-52 27 -95 52q-11 7 -24 1q-3 -1 -2 -3
q1 -1 4 -1q6 4 17 -3q19 -9 35 -18q-7 -4 -16 -14q-4 -4 2 -9q3 -2 2 -13q-3 -26 -6 -42q0 -4 -5 -3q-10 3 -12 3q-5 1 0 -7q1 -4 4 -2q1 2 7 1q26 -14 50 -34q6 -5 -2 -10q-3 -2 2 -2q8 4 15 10q-1 0 2 1q2 3 1 5q-2 2 -5 2q-7 0 -13 4t-42 24q1 0 4 1h3q3 2 0 5q-3 0 -2 8
q-1 7 1 17q0 1 1 1q7 -2 24 -8q8 -3 14 -6q9 -3 11 -7q1 -4 19 1q2 1 2 3q-1 1 -3 1q-12 1 -27 9q-8 4 -1 -1q2 -3 -2 -2q-11 5 -24 10q-6 4 -13 2q3 43 13 46q1 2 3 3l9 -5q17 -30 12 -43q-1 -1 0 -2q1 0 3 1q9 14 6 15q-3 5 -7 13q-5 9 -7 13q22 -12 41 -21z" />
</svg>
