<?xml version="1.0" encoding="utf-8"?>
<!-- Generator: Adobe Illustrator 23.0.3, SVG Export Plug-In . SVG Version: 6.00 Build 0)  -->
<svg version="1.1" id="Layer_1" xmlns="http://www.w3.org/2000/svg" xmlns:xlink="http://www.w3.org/1999/xlink" x="0px" y="0px"
	 viewBox="0 0 266 256" style="enable-background:new 0 0 266 256;" xml:space="preserve">
<path d="M104.7,76.7c0.7-0.7,2-2.2,3.3-2.5v-7.6c-2.1,0.4-4,1.1-6,1.9c0,2-0.3,4.8-1,8.5v4.3C102.2,79.7,103.3,78.1,104.7,76.7z"/>
<path d="M108.2,75.1c-2.2,0.5-5.8,6-7.2,7.8V83c-12,28-33.3,48-64,60c-4,2-4,2.7,0,2c24.9-8.3,45.4-23,61.8-44.1
	c-0.4-0.1-0.6-0.5-0.3-0.8c1.9-1.8,3.3-4,5-6.1c1.2-1.5,2.7-2.9,3.6-4.6V89c0.1-0.1,0.2-0.3,0.4-0.4c0.1-0.3,0.2-0.7,0.3-1
	c0.1-0.3,0.4-0.4,0.6-0.3c0.2-0.4,0.5-0.8,0.7-1.3l3-3C114.7,81,113.3,78.4,108.2,75.1z"/>
<path d="M106,104c0,0,0.1,0.1,0.1,0.1c0.2-1.9,0.6-3.7,0.9-5.5v-7.3c-0.6,0.9-1.4,1.7-2.1,2.5c-1.4,1.6-2.6,3.4-3.9,5
	c-0.7,31.5-0.7,52.6,0,63.2c0.7,14,1.7,25.3,3,34c0,2-0.3,3.3-1,4s-1.7,0.3-3-1c-0.7,0-1.7-0.7-3-2c-4.7-4-7.3-7.3-8-10
	c-2-1.3-3.3-1.7-4-1s-0.3,1.7,1,3c2,5.3,8,14.3,18,27c1.3,2,2.3,3.3,3,4c1.3,2,2.7,2.7,4,2c2-1.3,2.7-3,2-5
	C105,201,102.7,163.3,106,104z"/>
<path d="M133,119c-2-2.7-5-5-9-7l-6-3c-3.8-2.5-7.2-5.3-10.4-8.4c-0.3,1.5-0.5,3.1-0.6,4.6c7.7,9.3,15.3,15.6,23,18.8
	C132.7,124.7,133.7,123,133,119z"/>
<path d="M135,57c-3.3-0.7-7-1.3-11-2c-4.7,0-7.7,1-9,3c-1.1,1.1-2.8,2.2-5.2,3.3c0,0.2-0.1,0.3-0.4,0.4c-0.4,0.1-0.8,0.2-1.1,0.3
	c-0.1,0-0.2,0.1-0.3,0.1c0,0,0,0,0,0c-1.7,0.5-3.4,1.3-5.2,1.7c-0.3,0.1-0.6,0.1-0.8,0.2c0,0.1,0,0.1,0,0.2C75.3,74,53,80.3,35,83
	c-2,0.7-3,1.3-3,2s1,1,3,1c10,2.7,18.7,2,26-2c18.2-7.8,31.6-13,40.3-15.8c-0.1-0.2,0-0.5,0.3-0.7c2.1-0.8,4.3-1.6,6.5-2
	c0.2,0,0.4,0.1,0.5,0.2c8.5-3.1,16.9-4.8,25.3-4.8c1.3,0,2-0.7,2-2C136.7,58.3,136.3,57.7,135,57z"/>
<path d="M172,34c-9.8,19.6-20.3,36.6-31.3,51.1c1.8,0,3.5-0.1,5.3-0.2c13-14.5,26-31.7,39-51.9c3.3-4,4-7,2-9c-1.3-0.7-4.3-3-9-7
	c-2-1.3-3.3-2.7-4-4c-2.7-0.7-3.3-0.3-2,1C177.3,17.3,177.3,24,172,34z"/>
<path d="M159.7,183.3c-2.1-1.2-3.8-2.8-4.4-5c-3.4-3.4-4.9-8.8-4.3-16.3c-0.7-7.3-1-15-1-23c0.7-8.7,1.7-17.3,3-26
	c0-6.7,1.3-11.7,4-15c0.7-2,0.7-3.7,0-5c-3.3-2.7-7.3-5-12-7c0,0,0,0,0-0.1c-2.5,0.1-4.9,0.2-7.4,0.2c-1.9,0.3-3.2,0.9-3.7,1.9
	c-1.3,1.3-1.7,3.3-1,6c-0.7,1.3,0,1.3,2,0c8.7-0.7,12.7,0.7,12,4v9c0.7,2.7,1,6.3,1,11c0,4-0.3,10.3-1,19v21c0.7,9.3,0,14.7-2,16
	c-2,4-2.3,6-1,6c0.7,1.3,2,3,4,5c0.7,0.7,1.7,1.3,3,2c2.7,4,6.7,7,12,9c2,0,3.3-1.3,4-4c-1.3-1.3-2.3-2.7-3-4
	C162.3,186.9,160.9,185.3,159.7,183.3z"/>
<path d="M204,170c-4,0-10.3,0.7-19,2c-8.6,2-18,4.2-28.5,6.9c0.6,1.3,1.6,2.3,2.9,3.1c2,0,4.8-0.3,8.6-1c4.7-0.7,8.3-1.3,11-2
	c11.3-2,17.7-2.7,19-2c4,2,6.7,1,8-3C206.7,171.3,206,170,204,170z"/>
<path d="M104,31c-1.2,12.2-1.9,22.8-2,31.8c0.5-0.1,0.9-0.2,1.4-0.3c1.6-0.4,3.1-1.1,4.6-1.6c1.3-21.3,3.3-32.6,5.9-33.9
	c2.7-3.3,2.7-6.3,0-9c-2.7-3.3-6-6.7-10-10c-3.3-1.3-4-0.7-2,2C104,13.3,104.7,20.3,104,31z"/>
<path d="M230,92c-4-4-10.3-9.3-19-16c-1.3-0.7-2.3-1.7-3-3c-5.3-2.7-10.3-3.7-15-3c-17.3,2.7-31.3,7.3-42,14c-1.3,0.7-1,1.3,1,2
	c3.3,0.7,8-0.7,14-4c8-2.7,17-5,27-7c9.3-1.3,15,4,17,16c1.3,11.3,2.3,28,3,50c-0.7,22.7-1.7,39-3,49c-1.3,5.3-4.3,6.7-9,4
	c-5.3-2.7-10-6-14-10c-1.3-0.7-1.7-0.7-1,0c2,6,5.7,11.3,11,16c0.7,1.3,1.7,2.7,3,4c1.3,2,2.7,3.7,4,5c1.3,4,4,5,8,3
	c0.7-1.3,1.3-2.3,2-3c-1.3-2.7-1-7.7,1-15c2.7-30.7,4.7-55.7,6-75c0-16.7,2.3-24.3,7-23C230,95.3,230.7,94,230,92z"/>
<path d="M175,136c5.3-4.7,11.7-8,19-10c3.3,0,6.3-1.7,9-5c-2-1.3-3-2.3-3-3c-4-0.7-8.7-0.7-14,0c-1.3,0-2.7,0.7-4,2
	c-2.7,2-11.3,5.3-26,10c-1.3,1.3-1.3,2,0,2c4,1.3,9.7,0.7,17-2c2.7-0.7,2,1.3-2,6C170.3,138,171.7,138,175,136z"/>
</svg>
