<?xml version="1.0" standalone="no"?>
<!DOCTYPE svg PUBLIC "-//W3C//DTD SVG 1.1//EN" "http://www.w3.org/Graphics/SVG/1.1/DTD/svg11.dtd" >
<svg xmlns="http://www.w3.org/2000/svg" xmlns:xlink="http://www.w3.org/1999/xlink" version="1.1" viewBox="-10 0 266 256">
   <path fill="currentColor"
d="M94 8q6 5 10 10q4 4 0 9q-4 2 -6 35q5 -2 7 -4q2 -3 9 -3q6 1 11 2q2 1 1 2q0 2 -2 2q-13 0 -26 5v9q8 5 4 8l-3 3q-1 2 -2 3v11q5 5 11 9l6 3q6 3 9 7q1 6 -3 5q-12 -5 -24 -20q-5 89 7 113q1 3 -2 5q-2 1 -4 -2q-1 -1 -3 -4q-15 -19 -18 -27q-2 -2 -1 -3t4 1q1 4 8 10
q2 2 3 2q2 2 3 1t1 -4q-2 -13 -3 -34q-1 -16 0 -64q-25 34 -64 47q-6 1 0 -2q46 -18 64 -60v-6q1 -6 1 -9q-13 4 -41 16q-11 6 -26 2q-3 0 -3 -1t3 -2q27 -4 67 -19q0 -14 2 -33q1 -16 -2 -21q-3 -4 2 -2zM164 13q1 2 4 4q7 6 9 7q3 3 -2 9q-20 31 -40 53q7 3 12 7q1 2 0 5
q-4 5 -4 15q-2 13 -3 26q0 12 1 23q-1 12 5 17q16 -4 29 -7q13 -2 19 -2q3 0 2 4q-2 6 -8 3q-2 -1 -19 2q-4 1 -11 2q-6 1 -9 1q2 4 5 6q1 2 3 4q-1 4 -4 4q-8 -3 -12 -9q-2 -1 -3 -2q-3 -3 -4 -5q-2 0 1 -6q3 -2 2 -16v-21q1 -13 1 -19q0 -7 -1 -11v-9q1 -5 -12 -4
q-3 2 -2 0q-1 -4 1 -6q1 -2 6 -2q17 -22 32 -52q8 -15 0 -20q-2 -2 2 -1zM183 70q7 -1 15 3q1 2 3 3q13 10 19 16q1 3 -2 4q-7 -2 -7 23q-2 29 -6 75q-3 11 -1 15q-1 1 -2 3q-6 3 -8 -3q-2 -2 -4 -5q-2 -2 -3 -4q-8 -7 -11 -16q-1 -1 1 0q6 6 14 10q7 4 9 -4q2 -15 3 -49
q-1 -33 -3 -50q-3 -18 -17 -16q-15 3 -27 7q-9 5 -14 4q-3 -1 -1 -2q16 -10 42 -14zM172 120q2 -2 4 -2q8 -1 14 0q0 1 3 3q-4 5 -9 5q-11 3 -19 10q-5 3 -4 0q6 -7 2 -6q-11 4 -17 2q-2 0 0 -2q22 -7 26 -10z" />
</svg>
