<?xml version="1.0" encoding="utf-8"?>
<!-- Generator: Adobe Illustrator 23.0.3, SVG Export Plug-In . SVG Version: 6.00 Build 0)  -->
<svg version="1.1" id="Layer_1" xmlns="http://www.w3.org/2000/svg" xmlns:xlink="http://www.w3.org/1999/xlink" x="0px" y="0px"
	 viewBox="0 0 266 256" style="enable-background:new 0 0 266 256;" xml:space="preserve">
<path d="M60,64c1.3,0,5.3-1,12-3c0.1,0,0.1,0,0.2,0c2.4-1.7,4.6-3.6,7.2-4.9c-0.1,0-0.3,0-0.4,0c24-13.3,38-21.3,42-24s8.3-4,13-4
	c2,0,3.7-0.7,5-2c0.7-1.3,0.3-3-1-5c-2-0.7-2.7-1-2-1c-4.7-4-9.7-7.3-15-10c-3.3,0-4,0.7-2,2c5.3,3.3,6,6.7,2,10
	c-16,13.3-32.7,24.7-50,34c-4,0.7-6.3,0.3-7-1c-2-1.3-3.3-0.7-4,2C56.7,62.3,56.7,64.7,60,64z"/>
<path d="M175,135c0-8.7,0.3-15.3,1-20c0.1,0,0.2,0.1,0.3,0.1c0.1-1,0.1-1.9,0.2-2.9c-0.2-0.1-0.3-0.2-0.5-0.2V56c-0.7-4.7,0-9,2-13
	c1.3-2,0.7-3.7-2-5c-3.3-0.7-6.7-1.7-10-3c-1.3,0.7-2.3,1-3,1c0,0.7,0.7,1.3,2,2c3.3,1.3,5,6,5,14c0.7,28.7,1,53.7,1,75v33
	c0.7,10,1,25,1,45c-6.7,5.3-9,10.7-7,16c3.3,2,6.7,5.3,10,10c0.7,2.7,3.3,5,8,7c-0.7,0-0.3,0.3,1,1c2.7,0,4.3-1.3,5-4
	c-3.3-6-7.7-11.7-13-17C174,200.7,173.7,173,175,135z"/>
<path d="M241,126c-10.6-16.6-27-29.1-49.4-37.8c-2,0.6-3.9,1.6-5.8,2.5c0.3,0.2,0.7,0.3,1.2,0.3c15.3,6.7,27,13.3,35,20
	c4,3.3,5.7,5.7,5,7c-0.7,2-3.7,2.7-9,2c-16,0.7-29.5-1.8-40.5-7.3c-0.1,0.9-0.1,1.9-0.2,2.8c12.8,5.7,24.8,9.5,35.7,11.4
	c6,0.7,13.7,2.7,23,6h3C242.3,133,243,130.7,241,126z"/>
<path d="M178,36c7.3,0,16.7-1.7,28-5c3.3,0.7,4.7,2.3,4,5c-7.3,26-15,42.7-23,50l-1,1c-0.6,1.3-0.9,2.3-0.7,2.9
	c2.1-1.1,4.2-2.1,6.5-2.8c6.4-7.4,12.8-19.1,19.2-35.1c2.7-6.7,6.7-10.7,12-12c2.7-0.7,4-1.3,4-2c0.7-1.3,0.3-3-1-5
	c-3.3-1.3-7.3-5-12-11c-4-2.7-7.7-1.7-11,3c-6.7,3.3-15,6.3-25,9C174,35.3,174,36,178,36z"/>
<path d="M99,136c-6.4-1.9-10.6-16.1-12.7-42.6c0,0,0-0.1-0.1-0.2c-0.3-1.7-0.7-3.6-0.7-5.3C85.2,87.8,85,87.5,85,87
	c-1.3-6.7-1.7-12.3-1-17c-0.7-5.3,0-8,2-8c2-2,2-3.7,0-5h-3c-0.8-0.3-1.4-0.5-2-0.6c-2.5,1.1-4.7,2.8-6.9,4.4C76,60.9,77,61.9,77,64
	c2,10.7,4,24.7,6,42c0.7,7.3,0,11.7-2,13c-4,3.3-4.7,6.3-2,9c5.5,6.2,10.4,10.5,14.9,13.3c2.4-0.9,5-1.6,7.2-2.9
	C100.2,137.7,99.5,137,99,136z"/>
<path d="M154,68c-12-3.3-18.3-3.7-19-1c-1.3,2.7-5,5-11,7c-4,2-8.7,4-14,6c-10.9,3.9-18.7,6.5-23.5,7.9c0,0.8,0,1.5,0.1,2.3
	c4.4,1.1,8.5,0.4,12.3-2.1c8.7-3.3,16.7-6.7,24-10c2.7-0.7,3.3,0,2,2c-4.7,3.3-4.3,3.7,1,1c10-5.3,19-8.3,27-9c1.3,0,2.3-0.3,3-1
	C156,69.7,155.3,68.7,154,68z"/>
<path d="M111.5,133.2c0.1-0.1,0.3-0.1,0.4-0.2c2.2-0.9,4.5-1.7,6.6-2.9c1.4-2.7,3.6-6.7,6.5-12c2.7-5.3,5-9.7,7-13c2-0.7,0-5.7-6-15
	c-1.3-0.7-2.3-1-3-1c-0.7,0.7-0.7,1.3,0,2C126.3,99.6,122.4,113.6,111.5,133.2z"/>
<path d="M159,110c-11.9,5.6-24.6,12.1-38.3,19.5c0,0.1-0.1,0.2-0.1,0.2c-2.3,1.9-5.1,2.8-7.9,4c-1.9,0.8-3.8,1.7-5.7,2.5l-5,2.8
	c0,0,0,0,0,0c-2.2,1.4-4.6,2.1-7,3c0,0,0,0,0.1,0c-10.7,6-22.3,12-35,18c-7.3,4.7-13,5.7-17,3c-2,0-3.3,0.3-4,1c-0.7,1.3,0,2.3,2,3
	c8.7,4,16.7,3.7,24-1c28.7-16.7,60.3-34,95-52c2-1.3,3-2.3,3-3C162.3,109.7,161,109.3,159,110z"/>
</svg>
